name rise44.8762peak52.3436fall86.788.mot
datacolumns 19
datarows 24
range 13.68661200000000 13.72494600000000
endheader
time	ground_force1_vx	ground_force1_vy	ground_force1_vz	ground_force1_px	ground_force1_py	ground_force1_pz	ground_force2_vx	ground_force2_vy	ground_force2_vz	ground_force2_px	ground_force2_py	ground_force2_pz	ground_torque1_x	ground_torque1_y	ground_torque1_z	ground_torque2_x	ground_torque2_y	ground_torque2_z	
13.68661200000000	59.70098400000000	770.67584099999999	56.15874300000000	0.27551300000000	0.00000000000000	0.10585400000000	0.00000000000000	0.00000000000000	0.00000000000000	0.00000000000000	0.00000000000000	0.00000000000000	0.00000000000000	18.37221200000000	0.00000000000000	0.00000000000000	0.00000000000000	0.00000000000000	
13.68827800000000	59.08821000000000	773.87885300000005	56.30771900000000	0.27468000000000	0.00000000000000	0.10584800000000	0.00000000000000	0.00000000000000	0.00000000000000	0.00000000000000	0.00000000000000	0.00000000000000	0.00000000000000	18.45313300000000	0.00000000000000	0.00000000000000	0.00000000000000	0.00000000000000	
13.68994400000000	58.47774200000000	776.93841899999995	56.45582500000000	0.27385900000000	0.00000000000000	0.10584500000000	0.00000000000000	0.00000000000000	0.00000000000000	0.00000000000000	0.00000000000000	0.00000000000000	0.00000000000000	18.53352200000000	0.00000000000000	0.00000000000000	0.00000000000000	0.00000000000000	
13.69161600000000	57.86984000000000	779.85140899999999	56.60276600000000	0.27304800000000	0.00000000000000	0.10584200000000	0.00000000000000	0.00000000000000	0.00000000000000	0.00000000000000	0.00000000000000	0.00000000000000	0.00000000000000	18.61313900000000	0.00000000000000	0.00000000000000	0.00000000000000	0.00000000000000	
13.69327600000000	57.26469200000000	782.61488599999996	56.74818500000000	0.27224600000000	0.00000000000000	0.10584200000000	0.00000000000000	0.00000000000000	0.00000000000000	0.00000000000000	0.00000000000000	0.00000000000000	0.00000000000000	18.69171500000000	0.00000000000000	0.00000000000000	0.00000000000000	0.00000000000000	
13.69495000000000	56.66241500000000	785.22612600000002	56.89166400000000	0.27145100000000	0.00000000000000	0.10584400000000	0.00000000000000	0.00000000000000	0.00000000000000	0.00000000000000	0.00000000000000	0.00000000000000	0.00000000000000	18.76896400000000	0.00000000000000	0.00000000000000	0.00000000000000	0.00000000000000	
13.69661000000000	56.06306000000000	787.68263100000001	57.03273200000000	0.27066100000000	0.00000000000000	0.10584700000000	0.00000000000000	0.00000000000000	0.00000000000000	0.00000000000000	0.00000000000000	0.00000000000000	0.00000000000000	18.84457700000000	0.00000000000000	0.00000000000000	0.00000000000000	0.00000000000000	
13.69828000000000	55.46661900000000	789.98214700000005	57.17087300000000	0.26987300000000	0.00000000000000	0.10585200000000	0.00000000000000	0.00000000000000	0.00000000000000	0.00000000000000	0.00000000000000	0.00000000000000	0.00000000000000	18.91822900000000	0.00000000000000	0.00000000000000	0.00000000000000	0.00000000000000	
13.69994500000000	54.87302700000000	792.12267099999997	57.30552700000000	0.26908700000000	0.00000000000000	0.10585900000000	0.00000000000000	0.00000000000000	0.00000000000000	0.00000000000000	0.00000000000000	0.00000000000000	0.00000000000000	18.98958500000000	0.00000000000000	0.00000000000000	0.00000000000000	0.00000000000000	
13.70160900000000	54.28216800000000	794.10246800000004	57.43609900000000	0.26830000000000	0.00000000000000	0.10586900000000	0.00000000000000	0.00000000000000	0.00000000000000	0.00000000000000	0.00000000000000	0.00000000000000	0.00000000000000	19.05829400000000	0.00000000000000	0.00000000000000	0.00000000000000	0.00000000000000	
13.70328300000000	53.69387900000000	795.92007999999998	57.56196400000000	0.26751100000000	0.00000000000000	0.10588000000000	0.00000000000000	0.00000000000000	0.00000000000000	0.00000000000000	0.00000000000000	0.00000000000000	0.00000000000000	19.12400300000000	0.00000000000000	0.00000000000000	0.00000000000000	0.00000000000000	
13.70494500000000	53.10795900000000	797.57433700000001	57.68247400000000	0.26671600000000	0.00000000000000	0.10589300000000	0.00000000000000	0.00000000000000	0.00000000000000	0.00000000000000	0.00000000000000	0.00000000000000	0.00000000000000	19.18635200000000	0.00000000000000	0.00000000000000	0.00000000000000	0.00000000000000	
13.70661500000000	52.52417000000000	799.06436599999995	57.79696400000000	0.26591600000000	0.00000000000000	0.10590800000000	0.00000000000000	0.00000000000000	0.00000000000000	0.00000000000000	0.00000000000000	0.00000000000000	0.00000000000000	19.24497900000000	0.00000000000000	0.00000000000000	0.00000000000000	0.00000000000000	
13.70828300000000	51.94224400000000	800.38959499999999	57.90475700000000	0.26510800000000	0.00000000000000	0.10592500000000	0.00000000000000	0.00000000000000	0.00000000000000	0.00000000000000	0.00000000000000	0.00000000000000	0.00000000000000	19.29952500000000	0.00000000000000	0.00000000000000	0.00000000000000	0.00000000000000	
13.70994700000000	51.36189000000000	801.54976299999998	58.00517400000000	0.26429000000000	0.00000000000000	0.10594400000000	0.00000000000000	0.00000000000000	0.00000000000000	0.00000000000000	0.00000000000000	0.00000000000000	0.00000000000000	19.34963500000000	0.00000000000000	0.00000000000000	0.00000000000000	0.00000000000000	
13.71160900000000	50.78279700000000	802.54492400000004	58.09753600000000	0.26346100000000	0.00000000000000	0.10596500000000	0.00000000000000	0.00000000000000	0.00000000000000	0.00000000000000	0.00000000000000	0.00000000000000	0.00000000000000	19.39496300000000	0.00000000000000	0.00000000000000	0.00000000000000	0.00000000000000	
13.71328300000000	50.20464100000000	803.37545000000000	58.18117200000000	0.26262000000000	0.00000000000000	0.10598800000000	0.00000000000000	0.00000000000000	0.00000000000000	0.00000000000000	0.00000000000000	0.00000000000000	0.00000000000000	19.43517200000000	0.00000000000000	0.00000000000000	0.00000000000000	0.00000000000000	
13.71494800000000	49.62708900000000	804.04203199999995	58.25542600000000	0.26176400000000	0.00000000000000	0.10601300000000	0.00000000000000	0.00000000000000	0.00000000000000	0.00000000000000	0.00000000000000	0.00000000000000	0.00000000000000	19.46993800000000	0.00000000000000	0.00000000000000	0.00000000000000	0.00000000000000	
13.71661200000000	49.04980600000000	804.54568500000005	58.31965900000000	0.26089300000000	0.00000000000000	0.10604000000000	0.00000000000000	0.00000000000000	0.00000000000000	0.00000000000000	0.00000000000000	0.00000000000000	0.00000000000000	19.49895500000000	0.00000000000000	0.00000000000000	0.00000000000000	0.00000000000000	
13.71828100000000	48.47245600000000	804.88774400000000	58.37326000000000	0.26000500000000	0.00000000000000	0.10606900000000	0.00000000000000	0.00000000000000	0.00000000000000	0.00000000000000	0.00000000000000	0.00000000000000	0.00000000000000	19.52193400000000	0.00000000000000	0.00000000000000	0.00000000000000	0.00000000000000	
13.71994200000000	47.89471000000000	805.06986400000005	58.41564500000000	0.25910000000000	0.00000000000000	0.10610000000000	0.00000000000000	0.00000000000000	0.00000000000000	0.00000000000000	0.00000000000000	0.00000000000000	0.00000000000000	19.53860700000000	0.00000000000000	0.00000000000000	0.00000000000000	0.00000000000000	
13.72161300000000	47.31625300000000	805.09401600000001	58.44626800000000	0.25817600000000	0.00000000000000	0.10613200000000	0.00000000000000	0.00000000000000	0.00000000000000	0.00000000000000	0.00000000000000	0.00000000000000	0.00000000000000	19.54872900000000	0.00000000000000	0.00000000000000	0.00000000000000	0.00000000000000	
13.72327600000000	46.73677900000000	804.96248600000001	58.46462100000000	0.25723200000000	0.00000000000000	0.10616600000000	0.00000000000000	0.00000000000000	0.00000000000000	0.00000000000000	0.00000000000000	0.00000000000000	0.00000000000000	19.55208100000000	0.00000000000000	0.00000000000000	0.00000000000000	0.00000000000000	
13.72494600000000	46.15600600000000	804.67786699999999	58.47023900000000	0.25626800000000	0.00000000000000	0.10620300000000	0.00000000000000	0.00000000000000	0.00000000000000	0.00000000000000	0.00000000000000	0.00000000000000	0.00000000000000	19.54847100000000	0.00000000000000	0.00000000000000	0.00000000000000	0.00000000000000	
